<svg width="12" height="7" viewBox="0 0 12 7" fill="none" xmlns="http://www.w3.org/2000/svg">
<path d="M10.2967 1.21042L10.2967 1.2104C10.3574 1.15402 10.4285 1.11018 10.5055 1.08056C10.5825 1.05096 10.6645 1.03591 10.7468 1.03591C10.8292 1.03591 10.9111 1.05096 10.9881 1.08056C11.0651 1.11018 11.1363 1.15401 11.197 1.2104M10.2967 1.21042L11.197 1.21041C11.197 1.21041 11.197 1.21041 11.197 1.2104M10.2967 1.21042L6.00014 5.20021L1.70383 1.21062C1.7038 1.21059 1.70377 1.21056 1.70374 1.21053L10.2967 1.21042ZM11.197 1.2104C11.2578 1.26683 11.307 1.33483 11.3411 1.41106M11.197 1.2104L11.1127 1.51291M5.84853 6.40053L5.75866 6.63382C5.68165 6.60415 5.61054 6.56024 5.54985 6.50377L5.54998 6.50389L5.72008 6.32068L5.54975 6.50368L5.84853 6.40053ZM5.84853 6.40053C5.89659 6.41905 5.94811 6.42858 6.00014 6.42858C6.05217 6.42858 6.10369 6.41905 6.15174 6.40053C6.1998 6.38202 6.24345 6.35489 6.28019 6.32068M5.84853 6.40053L5.75866 6.63382C5.83569 6.6635 5.9177 6.67858 6.00014 6.67858C6.08258 6.67858 6.16458 6.6635 6.24162 6.63382C6.31867 6.60414 6.38981 6.56019 6.45052 6.50368M11.3411 1.41106L11.1127 1.51291M11.3411 1.41106C11.3411 1.41105 11.3411 1.41105 11.3411 1.41105L11.1127 1.51291M11.3411 1.41106C11.3751 1.48734 11.3929 1.56982 11.3929 1.65363C11.3929 1.73744 11.3751 1.81993 11.3411 1.89621C11.307 1.97243 11.2578 2.04043 11.197 2.09686L6.45052 6.50368M11.1127 1.51291C11.1326 1.55752 11.1429 1.60534 11.1429 1.65363C11.1429 1.70192 11.1326 1.74974 11.1127 1.79435C11.0928 1.83896 11.0637 1.8795 11.0269 1.91365L6.28019 6.32068M6.45052 6.50368L6.28019 6.32068M6.45052 6.50368L6.45029 6.50389L6.28019 6.32068M0.803519 2.09707L0.973388 1.91365L0.803288 2.09686L0.803519 2.09707Z" fill="#1F2230" stroke="#1F2230" stroke-width="0.5"/>
</svg>
