<svg width="50" height="58" viewBox="0 0 50 58" fill="none" xmlns="http://www.w3.org/2000/svg">
<rect width="50" height="58" fill="#E5E5E5"/>
<rect width="1920" height="6408" transform="translate(-435 -1098)" fill="white"/>
<g filter="url(#filter0_d_0_1)">
<path d="M-60 8C-60 -14.0914 -42.0914 -32 -20 -32H110V79C110 101.091 92.0914 119 70 119H-60V8Z" fill="white"/>
</g>
<path d="M9.21999 41.4395C9.2172 41.4395 9.21441 41.4395 9.21022 41.4395C8.74836 41.4339 8.3772 41.0557 8.38138 40.5939C8.41208 37.7501 10.787 35.4353 12.8828 33.3939C14.4093 31.9064 15.9874 30.3673 15.8339 29.2636C15.6149 27.6897 13.9879 26.7087 12.2646 25.6692C12.0512 25.5408 11.8377 25.4125 11.627 25.2827C11.2335 25.0399 11.1107 24.5236 11.3535 24.1301C11.5963 23.7366 12.1112 23.6139 12.506 23.8566C12.7125 23.9836 12.9205 24.1092 13.1298 24.2362C15.0205 25.3762 17.1637 26.6697 17.493 29.0334C17.7637 30.9771 15.9609 32.7339 14.0521 34.5939C12.1893 36.4092 10.0795 38.466 10.0558 40.6134C10.0516 41.0711 9.67766 41.4395 9.21999 41.4395Z" fill="#1F2230"/>
<path d="M23.9674 50.6027C19.4227 50.6027 15.1948 49.1488 11.7818 46.3609C11.3018 45.9688 10.8651 45.5669 10.4841 45.1678C10.1646 44.833 10.1772 44.3027 10.512 43.9846C10.8469 43.6651 11.3772 43.6776 11.6953 44.0125C12.0288 44.3627 12.4153 44.7158 12.8423 45.066C16.826 48.3199 22.0516 49.5785 27.5576 48.6102C33.1097 47.6334 38.2753 44.5148 42.1041 39.8278C49.9767 30.1916 49.6613 16.859 41.4009 10.1097C34.0153 4.07622 22.3976 5.29017 14.3772 12.9325C14.0423 13.252 13.512 13.2381 13.1939 12.9046C12.8744 12.5697 12.8883 12.0395 13.2232 11.7213C17.3772 7.76412 22.5985 5.27063 27.926 4.70273C33.3455 4.12505 38.5083 5.58459 42.4627 8.81482C51.439 16.1488 51.8604 30.5362 43.4032 40.8883C39.3218 45.8851 33.7976 49.2144 27.8506 50.2609C26.5376 50.4883 25.2399 50.6027 23.9674 50.6027Z" fill="#1F2230"/>
<path d="M36.9608 33.9144C35.8124 33.9144 34.6557 33.5335 33.6985 32.7521C31.4938 30.9507 31.1659 27.6925 32.9673 25.4879C34.7687 23.2832 38.0268 22.9553 40.2315 24.7567C42.4361 26.5581 42.7641 29.8163 40.9627 32.0209C39.9441 33.267 38.458 33.9144 36.9608 33.9144ZM34.7575 31.4544C36.2464 32.6711 38.4496 32.4493 39.6664 30.9605C40.8831 29.4716 40.6613 27.2698 39.1724 26.0516C37.6836 24.8349 35.4803 25.0567 34.2636 26.5456C33.0468 28.0358 33.2687 30.2377 34.7575 31.4544Z" fill="#1F2230"/>
<path d="M24.5689 45.112C23.2224 45.112 21.9289 44.6529 20.8726 43.7892C19.66 42.7985 18.9065 41.3962 18.7489 39.8376C18.5912 38.2804 19.0517 36.7553 20.041 35.5427C22.0851 33.0395 25.7842 32.6683 28.2875 34.7125C29.5 35.7032 30.2535 37.1055 30.4112 38.6641C30.5675 40.2213 30.1084 41.7464 29.1191 42.959C28.1284 44.1715 26.7261 44.925 25.1675 45.0827C24.9665 45.1022 24.767 45.112 24.5689 45.112ZM24.5828 35.0669C23.3689 35.0669 22.1633 35.5916 21.3372 36.6032C20.6298 37.4697 20.3019 38.5581 20.4135 39.6716C20.5251 40.7836 21.0637 41.7869 21.9303 42.4943C22.7968 43.2018 23.8851 43.5297 24.9986 43.4181C26.1107 43.3064 27.114 42.7678 27.82 41.9013C28.5275 41.0348 28.8554 39.9464 28.7437 38.8329C28.6321 37.7209 28.0935 36.7176 27.227 36.0102C26.4526 35.3753 25.5149 35.0669 24.5828 35.0669Z" fill="#1F2230"/>
<path d="M34.1953 19.9887C33.2018 19.9887 32.2027 19.6594 31.3753 18.9827C29.4692 17.4255 29.1846 14.6069 30.7418 12.6994C32.299 10.7934 35.1176 10.5087 37.0251 12.0659C38.9311 13.6232 39.2158 16.4418 37.6585 18.3492C36.7753 19.4306 35.4902 19.9887 34.1953 19.9887ZM34.2023 12.7371C33.393 12.7371 32.5892 13.0859 32.0381 13.7613C31.0641 14.9529 31.2413 16.7138 32.433 17.6878C33.6246 18.6618 35.3855 18.4845 36.3595 17.2929C37.3334 16.1013 37.1562 14.3404 35.9646 13.3664C35.4469 12.9422 34.8232 12.7371 34.2023 12.7371Z" fill="#1F2230"/>
<path d="M20.5405 22.139C19.6754 22.139 18.8423 21.8431 18.1642 21.2892C17.3856 20.6529 16.9 19.7501 16.7996 18.7497C16.6991 17.7478 16.9935 16.7683 17.6312 15.9883C18.9456 14.3794 21.3233 14.1394 22.9321 15.4538C23.7107 16.0901 24.1963 16.9929 24.2968 17.9934C24.3972 18.9952 24.1028 19.9748 23.4651 20.7548C22.8288 21.5334 21.9261 22.019 20.9256 22.1194C20.7972 22.1334 20.6688 22.139 20.5405 22.139ZM20.5502 16.2799C19.9433 16.2799 19.3405 16.5422 18.9275 17.0473C18.573 17.4799 18.4098 18.0255 18.4656 18.5808C18.5214 19.1376 18.7907 19.6385 19.2233 19.9915C19.6558 20.3459 20.2 20.5092 20.7568 20.4534C21.3135 20.3976 21.8144 20.1283 22.1675 19.6957C22.5219 19.2631 22.6851 18.7176 22.6293 18.1622C22.5735 17.6055 22.3042 17.1045 21.8716 16.7515C21.4837 16.4334 21.0149 16.2799 20.5502 16.2799Z" fill="#1F2230"/>
<path d="M8.43011 40.9176C8.3436 40.9176 8.2557 40.9037 8.16779 40.8758C7.72825 40.7307 7.48965 40.2576 7.63476 39.8181C8.1929 38.1242 8.77197 36.0255 9.35663 33.5809C10.1115 30.426 10.8427 26.8009 11.4734 23.0962C12.3748 17.7855 13.0096 12.6479 13.2608 8.63206C13.491 4.93857 13.339 3.21671 13.1896 2.4395C12.792 3.12322 12.0803 4.69857 11.0785 8.2609C9.99011 12.1344 8.89337 17.1925 7.99058 22.5046C6.8436 29.2525 6.13197 35.7576 6.08732 39.9046C6.08174 40.3637 5.70779 40.7321 5.25011 40.7321C5.24732 40.7321 5.24453 40.7321 5.24035 40.7321C4.77849 40.7265 4.40732 40.3483 4.4129 39.8851C4.46035 35.5916 5.16221 29.1548 6.33988 22.2228C7.32779 16.4097 8.525 10.9846 9.71383 6.94788C10.2999 4.95811 10.8538 3.40369 11.3631 2.32509C11.8752 1.2395 12.5366 0.153922 13.5483 0.32555C14.5599 0.498574 14.825 1.74183 14.952 2.93485C15.0776 4.1195 15.0873 5.7716 14.9841 7.84229C14.7734 12.0451 14.1134 17.5609 13.1255 23.3753C12.4892 27.1162 11.7496 30.779 10.9864 33.9688C10.3906 36.4581 9.79895 38.6014 9.22546 40.34C9.10965 40.6944 8.78314 40.9176 8.43011 40.9176Z" fill="#1F2230"/>
<path d="M6.73202 57.6884C6.68039 57.6884 6.62876 57.6842 6.57853 57.6744C4.59992 57.3046 2.8655 55.4572 1.69481 52.4698C0.68876 49.9051 0.284109 46.8716 0.637133 44.5512C0.931551 42.613 1.98364 40.8953 3.52271 39.8391C4.8176 38.9502 6.29806 38.6293 7.69201 38.9363C10.7534 39.6102 12.5729 43.2018 11.7483 46.9428C11.4134 48.4609 10.7004 49.6219 9.9455 50.8512C8.95062 52.4712 7.92225 54.1456 7.56225 56.9586C7.53295 57.1874 7.41155 57.3939 7.22457 57.5293C7.07946 57.6339 6.90783 57.6884 6.73202 57.6884ZM6.64829 40.4963C5.91434 40.4963 5.16085 40.7432 4.46876 41.2177C3.31062 42.013 2.51667 43.3191 2.29062 44.8023C1.97946 46.8479 2.34783 49.5521 3.25202 51.8586C4.00132 53.7702 4.9976 55.1251 6.06504 55.7237C6.56876 53.1493 7.59713 51.4735 8.51806 49.9749C9.2269 48.8209 9.83806 47.8246 10.1129 46.5828C10.7381 43.7432 9.49062 41.0474 7.33201 40.5716C7.10736 40.5214 6.87853 40.4963 6.64829 40.4963Z" fill="#1F2230"/>
<path d="M10.173 34.6134C10.1228 34.6134 10.0711 34.6093 10.0195 34.5995L5.57532 33.7748C5.12043 33.6911 4.82043 33.253 4.90555 32.7995C4.99067 32.346 5.42741 32.0446 5.8809 32.1283L10.3251 32.953C10.78 33.0367 11.08 33.4749 10.9949 33.9283C10.9209 34.3316 10.5693 34.6134 10.173 34.6134Z" fill="#1F2230"/>
<defs>
<filter id="filter0_d_0_1" x="-85" y="-60" width="230" height="211" filterUnits="userSpaceOnUse" color-interpolation-filters="sRGB">
<feFlood flood-opacity="0" result="BackgroundImageFix"/>
<feColorMatrix in="SourceAlpha" type="matrix" values="0 0 0 0 0 0 0 0 0 0 0 0 0 0 0 0 0 0 127 0" result="hardAlpha"/>
<feOffset dx="5" dy="2"/>
<feGaussianBlur stdDeviation="15"/>
<feComposite in2="hardAlpha" operator="out"/>
<feColorMatrix type="matrix" values="0 0 0 0 0 0 0 0 0 0 0 0 0 0 0 0 0 0 0.06 0"/>
<feBlend mode="normal" in2="BackgroundImageFix" result="effect1_dropShadow_0_1"/>
<feBlend mode="normal" in="SourceGraphic" in2="effect1_dropShadow_0_1" result="shape"/>
</filter>
</defs>
</svg>
