<svg width="38" height="38" viewBox="0 0 38 38" fill="none" xmlns="http://www.w3.org/2000/svg">
<path d="M6.70215 6.32327C3.44395 9.49241 1.15801 13.8787 0.297074 18.5916C-0.00722292 20.2912 -0.0962854 23.3194 0.118949 24.7666C0.341605 26.2733 0.905668 27.7354 1.71465 28.908C3.72598 31.8248 7.41465 33.1014 10.8955 32.092C12.2611 31.6987 13.367 31.0307 14.4432 29.9545C15.4897 28.908 16.0463 28.0174 16.4842 26.7112C17.2041 24.5662 17.0482 22.2358 16.0611 20.2393C14.8662 17.8123 12.4764 16.0385 9.9084 15.66C8.83965 15.5041 8.95098 15.6006 9.00293 14.851C9.11426 13.2924 9.70059 11.7116 10.8139 9.92288C11.467 8.89124 11.5264 9.03968 9.64121 7.15452C7.65215 5.17288 7.8377 5.22483 6.70215 6.32327ZM9.50762 9.59632C8.78028 10.7912 8.16426 12.3053 7.9045 13.5893C7.74121 14.3686 7.71153 15.8752 7.85254 16.276C7.99356 16.6545 8.17168 16.751 8.90645 16.803C11.6006 17.0182 13.9088 18.6065 15.0295 21.026C15.5268 22.0948 15.6232 22.5994 15.6158 24.0096C15.6158 25.1674 15.5936 25.3307 15.408 25.9393C14.6584 28.4034 12.7064 30.2959 10.2424 30.9565C9.35918 31.194 7.58535 31.2014 6.73926 30.9639C3.80762 30.1549 1.80371 27.728 1.33614 24.4252C1.22481 23.6088 1.23965 21.0409 1.37325 20.0018C1.57364 18.3764 1.90762 16.944 2.41231 15.5116C3.45137 12.5651 5.21778 9.6928 7.41465 7.39944L7.75606 7.05061L8.78028 8.07483L9.81192 9.10647L9.50762 9.59632Z" fill="#15C8A0"/>
<path d="M27.4983 6.62755C23.9136 10.2791 21.6796 15.133 21.1452 20.4322C21.0191 21.7088 21.1007 24.3955 21.2862 25.3084C22.1546 29.4721 25.2273 32.2405 29.1757 32.4112C31.5581 32.5151 33.6585 31.7432 35.3581 30.1326C36.7089 28.8487 37.555 27.3049 37.889 25.494C38.0597 24.5959 38.0077 22.7776 37.7925 21.9612C36.9464 18.7846 34.5862 16.469 31.4319 15.7342C31.0831 15.6526 30.6749 15.5858 30.5191 15.5858C30.0589 15.5858 30.0292 15.5338 30.0886 14.8065C30.2148 13.285 30.7714 11.7783 31.8921 9.93029C32.2929 9.27716 32.3671 9.10646 32.33 8.92834C32.2929 8.7799 31.8179 8.24552 30.7788 7.20646C29.9476 6.38263 29.2202 5.67013 29.1608 5.63302C29.1015 5.59591 28.9382 5.56623 28.7972 5.56623C28.5597 5.56623 28.4483 5.66271 27.4983 6.62755ZM30.3929 9.94513C29.2796 11.8971 28.671 14.1904 28.864 15.7268C28.9827 16.6842 29.0347 16.7287 29.9921 16.8029C33.087 17.0479 35.5733 19.0444 36.4937 22.0205C36.6792 22.6217 36.694 22.7701 36.694 23.9725C36.694 25.1748 36.6792 25.3233 36.4937 25.9244C35.8331 28.0545 34.5269 29.5834 32.5601 30.5037C31.5136 30.9936 30.8605 31.1346 29.5765 31.1346C28.6487 31.1346 28.3593 31.1049 27.8323 30.9639C25.2866 30.2811 23.3198 28.2104 22.6444 25.5162C22.4069 24.5811 22.3476 23.9205 22.3401 22.4139C22.3401 19.1557 22.9933 16.2686 24.4108 13.3221C25.4499 11.1623 26.5483 9.5592 28.3222 7.61466L28.8343 7.05802L29.8585 8.07482L30.8753 9.09162L30.3929 9.94513Z" fill="#15C8A0"/>
</svg>
